<svg xmlns="http://www.w3.org/2000/svg" viewBox="0 0 581 581">
    <path fill="currentColor" d="m112.42,116.2h384.91c36.31,0,54.61,17.14,54.61,52v244.6c0,34.57-18.3,52-54.61,52H112.42c-36.31,0-54.61-17.43-54.61-52v-244.6c0-34.86,18.3-52,54.61-52Zm192.31,249.83l195.8-160.65c6.97-5.81,12.49-19.17,3.78-31.08-8.42-11.91-23.82-12.2-33.99-4.94l-165.58,112.13-165.29-112.13c-10.17-7.26-25.56-6.97-33.99,4.94-8.71,11.91-3.2,25.27,3.78,31.08l195.51,160.65Z"/>
    <path stroke="#000" stroke-miterlimit="10" d="m384.88,274.5h-16v-48c0-35.2-28.8-64-64-64s-64,28.8-64,64v48h-16c-8,0-16,8-16,16v112c0,8,8,16,16,16h160c8,0,16-8,16-16v-112c0-8-8-16-16-16Zm-64,112h-32l6.4-35.2c-8-3.2-14.4-12.8-14.4-20.8,0-12.8,11.2-24,24-24s24,11.2,24,24c0,9.6-4.8,17.6-14.4,20.8l6.4,35.2Zm16-112h-64v-48c0-17.6,14.4-32,32-32s32,14.4,32,32v48Z"/>
</svg>